<?xml version="1.0" encoding="UTF-8" standalone="no"?>
<!-- Created with Inkscape (http://www.inkscape.org/) -->

<svg
   xmlns:dc="http://purl.org/dc/elements/1.1/"
   xmlns:cc="http://creativecommons.org/ns#"
   xmlns:rdf="http://www.w3.org/1999/02/22-rdf-syntax-ns#"
   xmlns:svg="http://www.w3.org/2000/svg"
   xmlns="http://www.w3.org/2000/svg"
   xmlns:sodipodi="http://sodipodi.sourceforge.net/DTD/sodipodi-0.dtd"
   xmlns:inkscape="http://www.inkscape.org/namespaces/inkscape"
   width="200"
   height="200"
   id="svg2"
   version="1.1"
   inkscape:version="0.48.4 r9939"
   sodipodi:docname="New document 1">
  <defs
     id="defs4" />
  <sodipodi:namedview
     id="base"
     pagecolor="#ffffff"
     bordercolor="#666666"
     borderopacity="1.0"
     inkscape:pageopacity="0.0"
     inkscape:pageshadow="2"
     inkscape:zoom="1.7833961"
     inkscape:cx="55.455844"
     inkscape:cy="96.946752"
     inkscape:document-units="px"
     inkscape:current-layer="layer1"
     showgrid="false"
     inkscape:window-width="1366"
     inkscape:window-height="705"
     inkscape:window-x="-8"
     inkscape:window-y="-8"
     inkscape:window-maximized="1" />
  <metadata
     id="metadata7">
    <rdf:RDF>
      <cc:Work
         rdf:about="">
        <dc:format>image/svg+xml</dc:format>
        <dc:type
           rdf:resource="http://purl.org/dc/dcmitype/StillImage" />
        <dc:title></dc:title>
      </cc:Work>
    </rdf:RDF>
  </metadata>
  <g
     inkscape:label="Layer 1"
     inkscape:groupmode="layer"
     id="layer1"
     transform="translate(0,-852.36218)">
    <path
       sodipodi:type="arc"
       style="fill:#00ff00;fill-opacity:0;stroke:#9f79da;stroke-width:15.16535473000000100;stroke-linecap:butt;stroke-linejoin:round;stroke-miterlimit:4;stroke-opacity:1;stroke-dasharray:none;stroke-dashoffset:0"
       id="path2985"
       sodipodi:cx="39.250954"
       sodipodi:cy="35.145988"
       sodipodi:rx="73.45536"
       sodipodi:ry="73.45536"
       d="m 112.70631,35.145988 a 73.45536,73.45536 0 1 1 -146.910717,0 73.45536,73.45536 0 1 1 146.910717,0 z"
       transform="translate(59.43716,914.60298)" />
    <path
       style="fill:#ffa500;stroke:none;fill-opacity:1"
       d="M 87.249118,177.35324 C 74.98685,175.21961 64.570659,171.31144 55.235796,165.3418 38.466145,154.61762 25.360265,136.53505 20.494257,117.40788 14.480318,93.768457 19.481187,68.75783 34.171943,49.002272 38.27837,43.480109 45.847719,36.055853 51.475265,32.03063 92.274356,2.8482086 148.62642,16.900059 171.0729,61.85328 c 5.64397,11.303093 8.09142,22.2302 8.0474,35.929126 -0.0332,10.333634 -1.10565,16.938564 -4.23364,26.073844 -7.66164,22.37586 -26.39836,41.4084 -48.56757,49.33439 -4.73433,1.69263 -11.55018,3.38978 -16.74826,4.17033 -4.69516,0.70504 -18.252353,0.70034 -22.321712,-0.008 l 0,0 z m 22.358222,-14.83958 c 16.72023,-2.92467 31.97271,-12.17508 42.01301,-25.4803 14.88421,-19.72426 17.24289,-47.157969 5.97806,-69.530262 -6.21634,-12.345826 -17.27266,-23.259394 -29.97688,-29.589843 -17.60614,-8.773048 -40.757801,-8.570169 -58.761591,0.51493 -6.060891,3.058456 -11.730975,7.227829 -16.976956,12.483636 -25.555484,25.603352 -25.643036,67.173799 -0.195431,92.792939 9.45554,9.51928 21.043728,15.85041 33.345238,18.21796 2.452585,0.47202 4.963894,0.96544 5.580695,1.09649 2.807761,0.59656 14.467345,0.28622 18.993855,-0.50555 l 0,0 z"
       id="path2987"
       inkscape:connector-curvature="0"
       transform="translate(0,852.36218)" />
  </g>
</svg>
